<svg xmlns="http://www.w3.org/2000/svg" xmlns:xlink="http://www.w3.org/1999/xlink" version="1.1" id="Layer_1" x="0px" y="0px" style="enable-background:new 0 0 841.89 595.28;" xml:space="preserve" viewBox="29.02 208.72 783.26 155.05">
<style type="text/css">
	.st0{fill:#FFFFFF;}
</style>
<g>
	<g>
		<path class="st0" d="M168.71,243.47c-16.46-18.81-39.45-34.75-71.98-34.75s-50.2,13.99-50.2,13.99    c-17.64,21.04-17.51,54.75-17.51,54.75c0,46.52,36.64,86.31,72.88,86.31s49.3-29.44,49.3-29.44    c20.12-9.46,27.95-26.07,31.09-38.35C185.44,283.7,185.17,262.28,168.71,243.47z M134.88,328.82c-3.66,0-14.11-0.78-23.78-11.76    c-9.67-10.98-10.08-27.44-9.35-32.97c0,0,16.67,4.09,26.99,15.59s12.94,23.26,13.85,27.57    C142.59,327.25,138.54,328.82,134.88,328.82z M150.82,320.2c0,0-10.85-41.5-55.41-45.29c0,0-2.35,8.25-2.35,17.46    c0,12.81,7.32,40.12,37.9,46.26c0,0-10.58,11.24-29.53,11.24s-35.13-13.64-39.31-22.52c-4.18-8.88-7.05-32.92,0-50.69    c7.05-17.77,8.34-20.48,7.82-33.81c0,0,5.23-4.7,14.77-4.7s16.48,5.47,18.82,11.5c2.09,5.39,2.74,9.02,8.89,12.68    c0,0-1.05,2.87-7.71,3.79c0,0,9.54,2.48,17.25-2.87c0,0-8.89-5.96-11.89-13.59c-2.8-7.12-7.08-13.11-13-15.97    c-6.02-2.91-18.76-7.81-36.79,3.69c0,0,1.57,4.57,1.57,7.97s-2.35,14.64-4.7,19.99c-2.35,5.36-8.18,12.35-9.93,38.38    c0,0-4.31-11.07-4.31-26.88s8.49-37.24,13.46-43.38c0,0,16.24-11.5,40.4-11.5s52.65,14.37,66.11,37.5    C176.3,282.56,167.29,308.83,150.82,320.2z"/>
		<circle class="st0" cx="96.13" cy="248.49" r="3.69"/>
	</g>
	<path class="st0" d="M274.49,265.85l-11,10.88c-6.96-7.36-15.08-11.05-24.35-11.05c-8.08,0-14.85,2.68-20.3,8.03   c-5.45,5.36-8.18,11.87-8.18,19.53c0,7.92,2.83,14.64,8.49,20.14c5.66,5.51,12.64,8.26,20.95,8.26c5.4,0,9.95-1.13,13.66-3.4   c3.71-2.27,6.69-5.82,8.96-10.66h-23.77v-14.67h41.29l0.11,3.46c0,7.18-1.86,13.99-5.58,20.42c-3.72,6.44-8.54,11.35-14.45,14.73   c-5.91,3.38-12.85,5.08-20.81,5.08c-8.52,0-16.12-1.85-22.79-5.55c-6.68-3.7-11.96-8.97-15.85-15.82   c-3.89-6.84-5.83-14.23-5.83-22.15c0-10.86,3.59-20.31,10.77-28.34c8.52-9.56,19.6-14.34,33.25-14.34c7.14,0,13.82,1.32,20.03,3.96   C264.33,256.59,269.46,260.42,274.49,265.85z"/>
	<path class="st0" d="M281.9,273.83h13.06v7.64c1.41-3.01,3.29-5.3,5.64-6.86c2.34-1.56,4.91-2.34,7.7-2.34   c1.97,0,4.04,0.52,6.19,1.56l-4.74,13.11c-1.79-0.89-3.26-1.34-4.41-1.34c-2.34,0-4.32,1.45-5.94,4.35   c-1.62,2.9-2.43,8.59-2.43,17.07l0.06,2.96v24.55H281.9V273.83z"/>
	<path class="st0" d="M356.53,273.83h15.23v60.7h-15.23v-6.42c-2.97,2.83-5.95,4.86-8.94,6.11c-2.99,1.25-6.23,1.87-9.72,1.87   c-7.84,0-14.62-3.04-20.34-9.12c-5.72-6.08-8.58-13.64-8.58-22.68c0-9.37,2.77-17.05,8.3-23.04c5.54-5.99,12.26-8.98,20.17-8.98   c3.64,0,7.06,0.69,10.25,2.06c3.19,1.38,6.15,3.44,8.86,6.19V273.83z M340.52,286.33c-4.71,0-8.62,1.67-11.73,4.99   c-3.11,3.33-4.67,7.6-4.67,12.8c0,5.25,1.58,9.56,4.75,12.94c3.17,3.39,7.07,5.08,11.71,5.08c4.78,0,8.75-1.66,11.9-4.99   c3.15-3.33,4.73-7.69,4.73-13.08c0-5.28-1.58-9.56-4.73-12.83C349.32,287.97,345.34,286.33,340.52,286.33z"/>
	<path class="st0" d="M421.68,273.83h15.23v60.7h-15.23v-6.42c-2.97,2.83-5.95,4.86-8.94,6.11c-2.99,1.25-6.23,1.87-9.72,1.87   c-7.84,0-14.62-3.04-20.34-9.12c-5.72-6.08-8.58-13.64-8.58-22.68c0-9.37,2.77-17.05,8.3-23.04c5.54-5.99,12.26-8.98,20.17-8.98   c3.64,0,7.06,0.69,10.25,2.06c3.19,1.38,6.15,3.44,8.86,6.19V273.83z M405.67,286.33c-4.71,0-8.62,1.67-11.73,4.99   c-3.11,3.33-4.67,7.6-4.67,12.8c0,5.25,1.58,9.56,4.75,12.94c3.17,3.39,7.07,5.08,11.71,5.08c4.78,0,8.75-1.66,11.9-4.99   c3.15-3.33,4.73-7.69,4.73-13.08c0-5.28-1.58-9.56-4.73-12.83C414.47,287.97,410.49,286.33,405.67,286.33z"/>
	<path class="st0" d="M443.17,273.83h15.23v6.22c3.45-2.91,6.58-4.94,9.39-6.08c2.8-1.14,5.67-1.71,8.61-1.71   c6.02,0,11.12,2.1,15.32,6.3c3.53,3.57,5.29,8.85,5.29,15.85v40.12h-15.06v-26.58c0-7.24-0.33-12.06-0.97-14.43   c-0.65-2.38-1.78-4.19-3.4-5.43c-1.61-1.24-3.61-1.87-5.98-1.87c-3.08,0-5.72,1.03-7.93,3.09c-2.21,2.06-3.74,4.91-4.59,8.55   c-0.45,1.9-0.67,6-0.67,12.32v24.35h-15.23V273.83z"/>
	<path class="st0" d="M547.4,273.83h15.23v60.7H547.4v-6.42c-2.97,2.83-5.95,4.86-8.94,6.11c-2.99,1.25-6.23,1.87-9.72,1.87   c-7.84,0-14.62-3.04-20.34-9.12c-5.72-6.08-8.58-13.64-8.58-22.68c0-9.37,2.77-17.05,8.3-23.04c5.54-5.99,12.26-8.98,20.17-8.98   c3.64,0,7.06,0.69,10.25,2.06c3.19,1.38,6.15,3.44,8.86,6.19V273.83z M531.39,286.33c-4.71,0-8.62,1.67-11.73,4.99   c-3.11,3.33-4.67,7.6-4.67,12.8c0,5.25,1.58,9.56,4.75,12.94c3.17,3.39,7.07,5.08,11.71,5.08c4.78,0,8.75-1.66,11.9-4.99   c3.15-3.33,4.73-7.69,4.73-13.08c0-5.28-1.58-9.56-4.73-12.83C540.2,287.97,536.21,286.33,531.39,286.33z"/>
	<path class="st0" d="M577.21,318.63c2.42,0,4.48,0.85,6.19,2.54c1.71,1.69,2.57,3.75,2.57,6.16c0,2.42-0.86,4.48-2.57,6.19   c-1.71,1.71-3.78,2.57-6.19,2.57c-2.42,0-4.48-0.86-6.19-2.57c-1.71-1.71-2.57-3.77-2.57-6.19c0-2.42,0.86-4.47,2.57-6.16   C572.72,319.48,574.79,318.63,577.21,318.63z"/>
	<path class="st0" d="M651.03,286.11l-12.68,6.97c-2.38-2.49-4.74-4.22-7.07-5.19c-2.33-0.97-5.06-1.45-8.18-1.45   c-5.7,0-10.31,1.7-13.83,5.1c-3.52,3.4-5.28,7.75-5.28,13.06c0,5.16,1.69,9.38,5.08,12.65c3.39,3.27,7.84,4.9,13.35,4.9   c6.82,0,12.12-2.32,15.92-6.97l12.01,8.22c-6.51,8.47-15.7,12.7-27.56,12.7c-10.68,0-19.04-3.16-25.08-9.49   c-6.04-6.32-9.07-13.73-9.07-22.21c0-5.88,1.47-11.29,4.41-16.24c2.94-4.95,7.04-8.83,12.3-11.66c5.26-2.83,11.15-4.24,17.66-4.24   c6.03,0,11.44,1.2,16.24,3.6C644.06,278.27,647.98,281.68,651.03,286.11z"/>
	<path class="st0" d="M684.01,272.27c5.73,0,11.11,1.43,16.15,4.3c5.04,2.86,8.97,6.75,11.8,11.66c2.83,4.91,4.24,10.21,4.24,15.9   c0,5.73-1.42,11.09-4.27,16.07c-2.85,4.99-6.72,8.88-11.63,11.69c-4.91,2.81-10.32,4.21-16.24,4.21c-8.7,0-16.13-3.1-22.29-9.29   c-6.16-6.19-9.23-13.72-9.23-22.57c0-9.49,3.48-17.39,10.43-23.71C669.08,275.02,676.09,272.27,684.01,272.27z M684.26,286.61   c-4.73,0-8.67,1.65-11.82,4.94c-3.15,3.29-4.72,7.5-4.72,12.64c0,5.28,1.56,9.56,4.67,12.83c3.11,3.27,7.05,4.91,11.82,4.91   c4.77,0,8.74-1.65,11.9-4.97c3.17-3.31,4.75-7.57,4.75-12.78c0-5.21-1.56-9.44-4.67-12.69   C693.08,288.23,689.1,286.61,684.26,286.61z"/>
	<path class="st0" d="M719.28,273.83h15.23v6.97c2.6-2.86,5.5-5,8.68-6.42c3.18-1.41,6.65-2.12,10.41-2.12   c3.8,0,7.22,0.93,10.27,2.79c3.05,1.86,5.51,4.58,7.37,8.15c2.42-3.57,5.39-6.29,8.91-8.15c3.52-1.86,7.36-2.79,11.53-2.79   c4.32,0,8.11,1,11.39,3.01c3.28,2.01,5.63,4.63,7.06,7.87c1.43,3.24,2.15,8.5,2.15,15.79v35.6h-15.34v-30.8   c0-6.88-0.86-11.54-2.57-13.98c-1.71-2.44-4.28-3.65-7.7-3.65c-2.6,0-4.94,0.74-7,2.23c-2.06,1.49-3.6,3.54-4.6,6.17   c-1,2.62-1.51,6.83-1.51,12.64v27.39h-15.34v-29.4c0-5.43-0.4-9.36-1.2-11.8c-0.8-2.44-2-4.25-3.61-5.44   c-1.6-1.19-3.54-1.79-5.82-1.79c-2.54,0-4.84,0.75-6.91,2.26c-2.07,1.51-3.62,3.62-4.64,6.33c-1.03,2.72-1.54,6.99-1.54,12.83v27   h-15.23V273.83z"/>
</g>
</svg>