<svg width="142" height="44" viewBox="0 0 142 44" fill="none" xmlns="http://www.w3.org/2000/svg">
<rect x="1.34662" y="1.45111" width="139.91" height="41.9005" rx="10.4451" stroke="#37474F" stroke-width="1.09949"/>
<path d="M50.3262 11.9127C50.3262 12.8135 50.0672 13.5306 49.5481 14.0659C48.9579 14.7023 48.1902 15.0205 47.246 15.0205C46.3404 15.0205 45.5716 14.698 44.9397 14.0519C44.3057 13.4069 43.9902 12.6061 43.9902 11.6515C43.9902 10.6958 44.3057 9.89601 44.9397 9.24994C45.5716 8.60494 46.3404 8.28137 47.246 8.28137C47.6941 8.28137 48.1244 8.37167 48.5318 8.55227C48.9402 8.73286 49.2671 8.97259 49.5125 9.27251L48.961 9.84011C48.5464 9.33056 47.975 9.07471 47.246 9.07471C46.5858 9.07471 46.0155 9.31336 45.534 9.79066C45.0525 10.269 44.8123 10.8882 44.8123 11.6515C44.8123 12.4136 45.0525 13.0339 45.534 13.5112C46.0155 13.9896 46.5858 14.2272 47.246 14.2272C47.9458 14.2272 48.5286 13.9874 48.9966 13.5069C49.2995 13.1941 49.4739 12.7598 49.5209 12.2008H47.246V11.4257H50.2824C50.3116 11.5945 50.3262 11.7568 50.3262 11.9127Z" fill="#37474F"/>
<path d="M50.3262 11.9127C50.3262 12.8135 50.0672 13.5306 49.5481 14.0659C48.9579 14.7023 48.1902 15.0205 47.246 15.0205C46.3404 15.0205 45.5716 14.698 44.9397 14.0519C44.3057 13.4069 43.9902 12.6061 43.9902 11.6515C43.9902 10.6958 44.3057 9.89601 44.9397 9.24994C45.5716 8.60494 46.3404 8.28137 47.246 8.28137C47.6941 8.28137 48.1244 8.37167 48.5318 8.55227C48.9402 8.73286 49.2671 8.97259 49.5125 9.27251L48.961 9.84011C48.5464 9.33056 47.975 9.07471 47.246 9.07471C46.5858 9.07471 46.0155 9.31336 45.534 9.79066C45.0525 10.269 44.8123 10.8882 44.8123 11.6515C44.8123 12.4136 45.0525 13.0339 45.534 13.5112C46.0155 13.9896 46.5858 14.2272 47.246 14.2272C47.9458 14.2272 48.5286 13.9874 48.9966 13.5069C49.2995 13.1941 49.4739 12.7598 49.5209 12.2008H47.246V11.4257H50.2824C50.3116 11.5945 50.3262 11.7568 50.3262 11.9127Z" fill="#37474F"/>
<path d="M55.1394 9.21877H52.2858V11.2634H54.8595V12.0385H52.2858V14.0831H55.1394V14.8765H51.4805V8.4265H55.1394V9.21877Z" fill="#37474F"/>
<path d="M55.1394 9.21877H52.2858V11.2634H54.8595V12.0385H52.2858V14.0831H55.1394V14.8765H51.4805V8.4265H55.1394V9.21877Z" fill="#37474F"/>
<path d="M58.5364 14.8762H57.7311V9.21852H55.9805V8.42625H60.287V9.21852H58.5364V14.8762Z" fill="#37474F"/>
<path d="M58.5364 14.8762H57.7311V9.21852H55.9805V8.42625H60.287V9.21852H58.5364V14.8762Z" fill="#37474F"/>
<path d="M63.4023 8.42601H64.2077V14.876H63.4023V8.42601Z" fill="#37474F"/>
<path d="M67.7786 14.8765H66.9733V9.21877H65.2227V8.4265H69.5292V9.21877H67.7786V14.8765Z" fill="#37474F"/>
<path d="M67.7786 14.8765H66.9733V9.21877H65.2227V8.4265H69.5292V9.21877H67.7786V14.8765Z" fill="#37474F"/>
<path d="M73.6817 13.5026C74.1455 13.9864 74.7127 14.2272 75.3843 14.2272C76.0559 14.2272 76.6231 13.9864 77.0868 13.5026C77.5506 13.0189 77.7835 12.4018 77.7835 11.6515C77.7835 10.9011 77.5506 10.283 77.0868 9.80033C76.6231 9.31659 76.0559 9.07471 75.3843 9.07471C74.7127 9.07471 74.1455 9.31659 73.6817 9.80033C73.219 10.283 72.9861 10.9011 72.9861 11.6515C72.9861 12.4018 73.219 13.0189 73.6817 13.5026ZM77.6822 14.0423C77.0659 14.6948 76.3003 15.0205 75.3843 15.0205C74.4682 15.0205 73.7026 14.6948 73.0874 14.0423C72.4711 13.3908 72.1641 12.5942 72.1641 11.6515C72.1641 10.7087 72.4711 9.91106 73.0874 9.25961C73.7026 8.60817 74.4682 8.28137 75.3843 8.28137C76.2951 8.28137 77.0586 8.60924 77.678 9.26391C78.2964 9.91858 78.6055 10.7141 78.6055 11.6515C78.6055 12.5942 78.2974 13.3908 77.6822 14.0423Z" fill="#37474F"/>
<path d="M73.6817 13.5026C74.1455 13.9864 74.7127 14.2272 75.3843 14.2272C76.0559 14.2272 76.6231 13.9864 77.0868 13.5026C77.5506 13.0189 77.7835 12.4018 77.7835 11.6515C77.7835 10.9011 77.5506 10.283 77.0868 9.80033C76.6231 9.31659 76.0559 9.07471 75.3843 9.07471C74.7127 9.07471 74.1455 9.31659 73.6817 9.80033C73.219 10.283 72.9861 10.9011 72.9861 11.6515C72.9861 12.4018 73.219 13.0189 73.6817 13.5026ZM77.6822 14.0423C77.0659 14.6948 76.3003 15.0205 75.3843 15.0205C74.4682 15.0205 73.7026 14.6948 73.0874 14.0423C72.4711 13.3908 72.1641 12.5942 72.1641 11.6515C72.1641 10.7087 72.4711 9.91106 73.0874 9.25961C73.7026 8.60817 74.4682 8.28137 75.3843 8.28137C76.2951 8.28137 77.0586 8.60924 77.678 9.26391C78.2964 9.91858 78.6055 10.7141 78.6055 11.6515C78.6055 12.5942 78.2974 13.3908 77.6822 14.0423Z" fill="#37474F"/>
<path d="M79.7363 14.876V8.42601H80.7161L83.7619 13.443H83.7974L83.7619 12.2003V8.42601H84.5682V14.876H83.7274L80.5406 9.61495H80.5061L80.5406 10.8587V14.876H79.7363Z" fill="#37474F"/>
<path d="M79.7363 14.876V8.42601H80.7161L83.7619 13.443H83.7974L83.7619 12.2003V8.42601H84.5682V14.876H83.7274L80.5406 9.61495H80.5061L80.5406 10.8587V14.876H79.7363Z" fill="#37474F"/>
<path d="M112.493 33.1515H114.442V19.713H112.493V33.1515ZM130.048 24.5537L127.814 30.3802H127.747L125.428 24.5537H123.329L126.806 32.6968L124.824 37.2268H126.856L132.215 24.5537H130.048ZM118.995 31.625C118.356 31.625 117.466 31.2972 117.466 30.4834C117.466 29.4471 118.574 29.0493 119.532 29.0493C120.388 29.0493 120.792 29.2396 121.313 29.4987C121.161 30.7435 120.12 31.625 118.995 31.625ZM119.23 24.2602C117.819 24.2602 116.356 24.8999 115.753 26.3178L117.482 27.0606C117.852 26.3178 118.541 26.0748 119.263 26.0748C120.271 26.0748 121.296 26.6973 121.313 27.8045V27.9421C120.96 27.7346 120.204 27.424 119.28 27.424C117.416 27.424 115.517 28.4785 115.517 30.449C115.517 32.2475 117.046 33.4063 118.759 33.4063C120.07 33.4063 120.792 32.8011 121.246 32.0916H121.313V33.129H123.194V27.9765C123.194 25.5911 121.464 24.2602 119.23 24.2602ZM107.185 26.1899H104.413V21.5835H107.185C108.642 21.5835 109.469 22.8251 109.469 23.8861C109.469 24.9278 108.642 26.1899 107.185 26.1899ZM107.135 19.713H102.465V33.1515H104.413V28.0604H107.135C109.295 28.0604 111.418 26.45 111.418 23.8861C111.418 21.3223 109.295 19.713 107.135 19.713ZM81.6684 31.6272C80.322 31.6272 79.195 30.4673 79.195 28.8741C79.195 27.2638 80.322 26.0856 81.6684 26.0856C82.998 26.0856 84.0404 27.2638 84.0404 28.8741C84.0404 30.4673 82.998 31.6272 81.6684 31.6272ZM83.9067 25.3062H83.8388C83.4012 24.7698 82.5604 24.285 81.5002 24.285C79.2785 24.285 77.2428 26.2931 77.2428 28.8741C77.2428 31.4369 79.2785 33.4289 81.5002 33.4289C82.5604 33.4289 83.4012 32.9441 83.8388 32.3894H83.9067V33.0483C83.9067 34.7973 82.998 35.7326 81.5336 35.7326C80.3387 35.7326 79.5981 34.8489 79.2952 34.104L77.5958 34.8317C78.0836 36.0443 79.3798 37.5332 81.5336 37.5332C83.8221 37.5332 85.7576 36.1475 85.7576 32.771V24.5612H83.9067V25.3062ZM87.104 33.1515H89.0562V19.7119H87.104V33.1515ZM91.9327 28.7182C91.8826 26.952 93.2624 26.0512 94.2547 26.0512C95.0297 26.0512 95.6857 26.4489 95.904 27.0208L91.9327 28.7182ZM97.9909 27.1939C97.6211 26.1727 96.4931 24.285 94.1878 24.285C91.8993 24.285 89.9983 26.1372 89.9983 28.8569C89.9983 31.4197 91.8826 33.4289 94.4061 33.4289C96.4429 33.4289 97.6211 32.1475 98.1089 31.4025L96.5944 30.363C96.0899 31.1252 95.3995 31.6272 94.4061 31.6272C93.4138 31.6272 92.7067 31.1596 92.2524 30.2426L98.1925 27.7131L97.9909 27.1939ZM50.6663 25.6878V27.6271H55.1755C55.0407 28.7182 54.6877 29.5148 54.1497 30.0684C53.4927 30.7446 52.466 31.4896 50.6663 31.4896C47.889 31.4896 45.7185 29.1859 45.7185 26.3285C45.7185 23.4701 47.889 21.1675 50.6663 21.1675C52.1641 21.1675 53.2577 21.7738 54.0651 22.5532L55.3948 21.1847C54.2667 20.0764 52.7699 19.2271 50.6663 19.2271C46.8633 19.2271 43.666 22.4145 43.666 26.3285C43.666 30.2426 46.8633 33.4289 50.6663 33.4289C52.7188 33.4289 54.2667 32.7355 55.4784 31.4369C56.7245 30.1555 57.1109 28.3549 57.1109 26.8994C57.1109 26.4489 57.0775 26.034 57.0096 25.6878H50.6663ZM62.2384 31.6272C60.892 31.6272 59.7305 30.4845 59.7305 28.8569C59.7305 27.2111 60.892 26.0856 62.2384 26.0856C63.5837 26.0856 64.7452 27.2111 64.7452 28.8569C64.7452 30.4845 63.5837 31.6272 62.2384 31.6272ZM62.2384 24.285C59.7807 24.285 57.7784 26.2071 57.7784 28.8569C57.7784 31.4896 59.7807 33.4289 62.2384 33.4289C64.6951 33.4289 66.6974 31.4896 66.6974 28.8569C66.6974 26.2071 64.6951 24.285 62.2384 24.285ZM71.9659 31.6272C70.6195 31.6272 69.4581 30.4845 69.4581 28.8569C69.4581 27.2111 70.6195 26.0856 71.9659 26.0856C73.3123 26.0856 74.4727 27.2111 74.4727 28.8569C74.4727 30.4845 73.3123 31.6272 71.9659 31.6272ZM71.9659 24.285C69.5092 24.285 67.5069 26.2071 67.5069 28.8569C67.5069 31.4896 69.5092 33.4289 71.9659 33.4289C74.4226 33.4289 76.4249 31.4896 76.4249 28.8569C76.4249 26.2071 74.4226 24.285 71.9659 24.285Z" fill="#37474F"/>
<path d="M22.4373 21.7824L11.3164 33.9298C11.3175 33.9319 11.3175 33.9352 11.3185 33.9373C11.66 35.2563 12.8299 36.2271 14.2191 36.2271C14.7748 36.2271 15.296 36.0723 15.743 35.8014L15.7785 35.7799L28.2959 28.3463L22.4373 21.7824Z" fill="#F73548"/>
<path d="M33.6868 19.7146L33.6763 19.707L28.272 16.4831L22.1836 22.0591L28.294 28.3457L33.669 25.154C34.6111 24.6294 35.2514 23.6071 35.2514 22.4289C35.2514 21.2572 34.6206 20.2402 33.6868 19.7146Z" fill="#FFCC00"/>
<path d="M11.3153 10.8748C11.2484 11.1285 11.2129 11.3951 11.2129 11.6703V33.1358C11.2129 33.411 11.2484 33.6776 11.3163 33.9302L22.8184 22.0934L11.3153 10.8748Z" fill="#00D0FF"/>
<path d="M22.5198 22.4028L28.275 16.4807L15.7723 9.02023C15.3179 8.73965 14.7873 8.5784 14.2201 8.5784C12.8309 8.5784 11.659 9.55127 11.3175 10.8714C11.3175 10.8724 11.3164 10.8735 11.3164 10.8746L22.5198 22.4028Z" fill="#00F076"/>
</svg>
