<svg width="129" height="44" viewBox="0 0 129 44" fill="none" xmlns="http://www.w3.org/2000/svg">
<rect x="0.549744" y="1.45111" width="127.697" height="41.9005" rx="10.4451" stroke="#37474F" stroke-width="1.09949"/>
<path d="M25.1623 23.1131C25.174 22.1748 25.4162 21.2549 25.8662 20.4388C26.3162 19.6227 26.9595 18.9371 27.7362 18.4457C27.2428 17.7204 26.5919 17.1236 25.8352 16.7025C25.0784 16.2815 24.2367 16.0478 23.3769 16.0202C21.5428 15.822 19.7646 17.1497 18.83 17.1497C17.8773 17.1497 16.4382 16.0398 14.8886 16.0726C13.8863 16.106 12.9095 16.4059 12.0533 16.9433C11.1971 17.4807 10.4908 18.2372 10.0031 19.1391C7.89071 22.9031 9.46637 28.435 11.4899 31.4776C12.5023 32.9674 13.6855 34.6317 15.2337 34.5726C16.7487 34.508 17.3145 33.5784 19.1433 33.5784C20.955 33.5784 21.4859 34.5726 23.0655 34.5351C24.6912 34.508 25.7154 33.0386 26.6923 31.5347C27.4197 30.4731 27.9795 29.2998 28.3508 28.0583C27.4063 27.6472 26.6003 26.959 26.0333 26.0796C25.4663 25.2002 25.1634 24.1685 25.1623 23.1131Z" fill="#343433"/>
<path d="M22.9484 13.8204C23.8348 12.7252 24.2715 11.3176 24.1657 9.89648C22.8115 10.0429 21.5606 10.709 20.6622 11.7621C20.223 12.2766 19.8866 12.8751 19.6723 13.5234C19.4579 14.1718 19.3698 14.8573 19.413 15.5407C20.0904 15.5479 20.7605 15.3968 21.3729 15.0988C21.9852 14.8008 22.5239 14.3637 22.9484 13.8204Z" fill="#343433"/>
<path d="M45.0819 30.6023H39.9119L38.6703 34.3754H36.4805L41.3774 20.416H43.6526L48.5496 34.3754H46.3224L45.0819 30.6023ZM40.4473 28.8612H44.5454L42.5252 22.7378H42.4687L40.4473 28.8612Z" fill="#37474F"/>
<path d="M59.1256 29.287C59.1256 32.4497 57.4808 34.4817 54.9987 34.4817C54.37 34.5156 53.7447 34.3665 53.1944 34.0516C52.6441 33.7367 52.1912 33.2686 51.8873 32.7011H51.8404V37.7421H49.8105V24.1977H51.7753V25.8905H51.8127C52.1305 25.3257 52.5911 24.8601 53.1456 24.5432C53.7 24.2264 54.3276 24.0702 54.9614 24.0912C57.4712 24.0912 59.1256 26.1331 59.1256 29.287ZM57.0392 29.287C57.0392 27.2265 56.0046 25.8718 54.4259 25.8718C52.875 25.8718 51.8319 27.255 51.8319 29.287C51.8319 31.3377 52.875 32.711 54.4259 32.711C56.0046 32.711 57.0392 31.3662 57.0392 29.287Z" fill="#37474F"/>
<path d="M70.0104 29.2868C70.0104 32.4495 68.3656 34.4814 65.8835 34.4814C65.2548 34.5153 64.6294 34.3662 64.0792 34.0513C63.5289 33.7364 63.0759 33.2684 62.7721 32.7008H62.7251V37.7418H60.6953V24.1975H62.6601V25.8902H62.6974C63.0152 25.3254 63.4758 24.8598 64.0303 24.543C64.5847 24.2262 65.2123 24.0699 65.8461 24.091C68.356 24.091 70.0104 26.1328 70.0104 29.2868ZM67.924 29.2868C67.924 27.2262 66.8893 25.8716 65.3107 25.8716C63.7598 25.8716 62.7166 27.2548 62.7166 29.2868C62.7166 31.3374 63.7598 32.7107 65.3107 32.7107C66.8894 32.7107 67.924 31.366 67.924 29.2868H67.924Z" fill="#37474F"/>
<path d="M77.2029 30.486C77.3533 31.8704 78.6599 32.7793 80.4455 32.7793C82.1564 32.7793 83.3873 31.8703 83.3873 30.6221C83.3873 29.5386 82.6449 28.8898 80.887 28.4452L79.1292 28.0094C76.6386 27.3903 75.4824 26.1915 75.4824 24.2462C75.4824 21.8377 77.5218 20.1833 80.4177 20.1833C83.2838 20.1833 85.2486 21.8377 85.3147 24.2462H83.2656C83.143 22.8531 82.0241 22.0123 80.3889 22.0123C78.7537 22.0123 77.6348 22.863 77.6348 24.1013C77.6348 25.0882 78.3495 25.669 80.0977 26.1135L81.5921 26.4911C84.3749 27.1685 85.5312 28.319 85.5312 30.3608C85.5312 32.9724 83.5099 34.6081 80.295 34.6081C77.2871 34.6081 75.2562 33.0108 75.125 30.4859L77.2029 30.486Z" fill="#37474F"/>
<path d="M89.9128 21.7893V24.1978H91.7933V25.8522H89.9128V31.4629C89.9128 32.3346 90.2893 32.7407 91.116 32.7407C91.3392 32.7367 91.5621 32.7206 91.7837 32.6924V34.3369C91.412 34.4083 91.0343 34.4407 90.6563 34.4335C88.6542 34.4335 87.8734 33.6595 87.8734 31.6857V25.8522H86.4355V24.1978H87.8734V21.7893H89.9128Z" fill="#37474F"/>
<path d="M92.8809 29.287C92.8809 26.0847 94.7133 24.0725 97.5709 24.0725C100.438 24.0725 102.262 26.0847 102.262 29.287C102.262 32.498 100.448 34.5014 97.5709 34.5014C94.6952 34.5014 92.8809 32.4979 92.8809 29.287ZM100.194 29.287C100.194 27.0903 99.2157 25.7938 97.5709 25.7938C95.9261 25.7938 94.9491 27.1002 94.9491 29.287C94.9491 31.4924 95.9261 32.779 97.5709 32.779C99.2157 32.779 100.194 31.4924 100.194 29.287H100.194Z" fill="#37474F"/>
<path d="M103.936 24.1974H105.872V25.9297H105.918C106.049 25.3886 106.357 24.9105 106.791 24.5756C107.224 24.2408 107.756 24.0696 108.297 24.0909C108.531 24.09 108.764 24.1162 108.993 24.1688V26.1229C108.697 26.03 108.389 25.9874 108.081 25.9966C107.786 25.9843 107.492 26.0378 107.219 26.1535C106.946 26.2691 106.701 26.4442 106.5 26.6667C106.299 26.8891 106.147 27.1537 106.055 27.4422C105.962 27.7307 105.932 28.0364 105.965 28.3382V34.3749H103.936L103.936 24.1974Z" fill="#37474F"/>
<path d="M118.352 31.3859C118.079 33.2335 116.331 34.5014 114.094 34.5014C111.217 34.5014 109.432 32.5177 109.432 29.3353C109.432 26.1429 111.227 24.0725 114.009 24.0725C116.745 24.0725 118.465 26.0068 118.465 29.0926V29.8084H111.481V29.9346C111.448 30.3092 111.494 30.6865 111.614 31.0416C111.735 31.3966 111.927 31.7212 112.179 31.9939C112.43 32.2666 112.735 32.481 113.074 32.623C113.412 32.765 113.776 32.8312 114.141 32.8174C114.621 32.8637 115.102 32.7493 115.513 32.4914C115.925 32.2335 116.244 31.8458 116.425 31.3859L118.352 31.3859ZM111.49 28.3484H116.434C116.452 28.0116 116.403 27.6745 116.288 27.3584C116.174 27.0423 115.998 26.7539 115.77 26.5114C115.542 26.2688 115.268 26.0774 114.965 25.949C114.662 25.8206 114.336 25.758 114.009 25.7653C113.678 25.7633 113.35 25.8286 113.045 25.9576C112.739 26.0866 112.461 26.2766 112.226 26.5168C111.992 26.7569 111.807 27.0424 111.68 27.3568C111.554 27.6712 111.489 28.0082 111.49 28.3484V28.3484Z" fill="#37474F"/>
<path d="M40.1939 9.90849C40.6195 9.87706 41.0465 9.94323 41.4442 10.1022C41.8419 10.2612 42.2004 10.5091 42.4937 10.8279C42.7871 11.1467 43.008 11.5286 43.1406 11.9459C43.2732 12.3633 43.3142 12.8057 43.2605 13.2413C43.2605 15.3842 42.1352 16.616 40.1939 16.616H37.8398V9.90849H40.1939ZM38.8521 15.6674H40.0809C40.3849 15.6861 40.6893 15.6348 40.9716 15.5172C41.254 15.3996 41.5074 15.2186 41.7133 14.9876C41.9191 14.7565 42.0724 14.4811 42.1618 14.1814C42.2512 13.8816 42.2745 13.5652 42.2301 13.255C42.2713 12.9461 42.2456 12.6316 42.1548 12.334C42.064 12.0365 41.9104 11.7634 41.705 11.5341C41.4996 11.3049 41.2475 11.1252 40.9667 11.0081C40.6859 10.8909 40.3834 10.8391 40.0809 10.8564H38.8521V15.6674Z" fill="#37474F"/>
<path d="M44.4035 14.0829C44.3726 13.7503 44.4096 13.4146 44.5121 13.0976C44.6146 12.7805 44.7804 12.489 44.9987 12.2417C45.2171 11.9944 45.4833 11.7968 45.7802 11.6616C46.0772 11.5264 46.3983 11.4565 46.723 11.4565C47.0477 11.4565 47.3688 11.5264 47.6657 11.6616C47.9626 11.7968 48.2288 11.9944 48.4472 12.2417C48.6656 12.489 48.8313 12.7805 48.9338 13.0976C49.0363 13.4146 49.0733 13.7503 49.0424 14.0829C49.0739 14.4159 49.0374 14.752 48.9351 15.0696C48.8329 15.3872 48.6673 15.6793 48.4488 15.927C48.2304 16.1748 47.964 16.3728 47.6668 16.5083C47.3695 16.6438 47.048 16.7138 46.723 16.7138C46.3979 16.7138 46.0764 16.6438 45.7792 16.5083C45.482 16.3728 45.2156 16.1748 44.9971 15.927C44.7787 15.6793 44.613 15.3872 44.5108 15.0696C44.4086 14.752 44.372 14.4159 44.4035 14.0829ZM48.044 14.0829C48.044 12.9857 47.5651 12.344 46.7246 12.344C45.8809 12.344 45.4062 12.9857 45.4062 14.0829C45.4062 15.1889 45.8809 15.8257 46.7246 15.8257C47.5651 15.8256 48.044 15.1845 48.044 14.0829H48.044Z" fill="#37474F"/>
<path d="M55.2077 16.6161H54.2008L53.1843 12.888H53.1075L52.0952 16.6161H51.0979L49.7422 11.5542H50.7267L51.6078 15.4167H51.6803L52.6915 11.5542H53.6227L54.6338 15.4167H54.7106L55.5874 11.5542H56.558L55.2077 16.6161Z" fill="#37474F"/>
<path d="M57.6992 11.5539H58.6336V12.358H58.7061C58.8292 12.0692 59.0367 11.8271 59.2998 11.6654C59.5629 11.5038 59.8684 11.4306 60.1738 11.4562C60.4131 11.4376 60.6534 11.4748 60.8769 11.5648C61.1004 11.6548 61.3013 11.7955 61.4648 11.9763C61.6283 12.1571 61.7502 12.3734 61.8214 12.6093C61.8926 12.8452 61.9113 13.0945 61.8762 13.3388V16.6157H60.9056V13.5897C60.9056 12.7762 60.5621 12.3717 59.8442 12.3717C59.6818 12.3639 59.5196 12.3924 59.3688 12.4551C59.218 12.5179 59.0822 12.6135 58.9706 12.7353C58.8591 12.8572 58.7744 13.0024 58.7225 13.161C58.6706 13.3197 58.6527 13.488 58.6699 13.6545V16.6157H57.6992L57.6992 11.5539Z" fill="#37474F"/>
<path d="M63.4238 9.57812H64.3945V16.616H63.4238V9.57812Z" fill="#37474F"/>
<path d="M65.7434 14.0828C65.7125 13.7501 65.7495 13.4145 65.852 13.0974C65.9545 12.7803 66.1203 12.4887 66.3387 12.2414C66.5571 11.9941 66.8233 11.7966 67.1203 11.6613C67.4172 11.5261 67.7383 11.4563 68.0631 11.4563C68.3878 11.4563 68.7089 11.5261 69.0058 11.6613C69.3028 11.7966 69.569 11.9941 69.7874 12.2414C70.0058 12.4887 70.1716 12.7803 70.2741 13.0974C70.3766 13.4145 70.4136 13.7501 70.3827 14.0828C70.4142 14.4158 70.3776 14.7519 70.2754 15.0695C70.1731 15.3871 70.0074 15.6791 69.789 15.9269C69.5705 16.1746 69.3041 16.3726 69.0069 16.5081C68.7096 16.6436 68.3881 16.7136 68.0631 16.7136C67.738 16.7136 67.4165 16.6436 67.1192 16.5081C66.822 16.3726 66.5556 16.1746 66.3371 15.9269C66.1187 15.6791 65.953 15.3871 65.8507 15.0695C65.7485 14.7519 65.7119 14.4158 65.7434 14.0828ZM69.3838 14.0828C69.3838 12.9855 68.9049 12.3439 68.0644 12.3439C67.2207 12.3439 66.7461 12.9855 66.7461 14.0828C66.7461 15.1888 67.2207 15.8255 68.0644 15.8255C68.9049 15.8255 69.3838 15.1844 69.3838 14.0828H69.3838Z" fill="#37474F"/>
<path d="M71.4043 15.1843C71.4043 14.2732 72.0635 13.7479 73.2336 13.6733L74.5658 13.5942V13.1573C74.5658 12.6227 74.2224 12.3208 73.5589 12.3208C73.0171 12.3208 72.6416 12.5255 72.5339 12.8834H71.5942C71.6934 12.014 72.488 11.4563 73.6037 11.4563C74.8368 11.4563 75.5322 12.0881 75.5322 13.1573V16.6158H74.5978V15.9045H74.521C74.3652 16.1597 74.1463 16.3677 73.8867 16.5073C73.6272 16.6469 73.3363 16.7132 73.0437 16.6992C72.8373 16.7214 72.6286 16.6987 72.4311 16.6327C72.2337 16.5667 72.0519 16.4589 71.8974 16.3161C71.743 16.1734 71.6193 15.999 71.5344 15.804C71.4494 15.6091 71.4051 15.398 71.4043 15.1843ZM74.5658 14.7518V14.3286L73.3648 14.4077C72.6875 14.4543 72.3803 14.6914 72.3803 15.1377C72.3803 15.5933 72.7643 15.8584 73.2923 15.8584C73.447 15.8745 73.6033 15.8584 73.7518 15.8111C73.9004 15.7638 74.0382 15.6862 74.157 15.583C74.2758 15.4797 74.3732 15.3529 74.4435 15.2101C74.5137 15.0674 74.5553 14.9115 74.5658 14.7518Z" fill="#37474F"/>
<path d="M76.8086 14.0829C76.8086 12.4834 77.6075 11.4702 78.8502 11.4702C79.1575 11.4556 79.4626 11.5314 79.7297 11.6886C79.9967 11.8459 80.2148 12.0781 80.3584 12.3582H80.4309V9.57812H81.4016V16.616H80.4715V15.8162H80.3947C80.24 16.0944 80.0143 16.3238 79.7421 16.4795C79.4698 16.6352 79.1614 16.7112 78.8502 16.6994C77.599 16.6995 76.8086 15.6862 76.8086 14.0829ZM77.8113 14.0829C77.8113 15.1565 78.303 15.8025 79.1254 15.8025C79.9435 15.8025 80.4491 15.1472 80.4491 14.0873C80.4491 13.0323 79.9382 12.3676 79.1254 12.3676C78.3083 12.3676 77.8112 13.018 77.8112 14.0829H77.8113Z" fill="#37474F"/>
<path d="M85.4172 14.0829C85.3863 13.7503 85.4233 13.4146 85.5258 13.0976C85.6283 12.7805 85.794 12.489 86.0124 12.2417C86.2308 11.9944 86.497 11.7968 86.7939 11.6616C87.0908 11.5264 87.412 11.4565 87.7366 11.4565C88.0613 11.4565 88.3824 11.5264 88.6794 11.6616C88.9763 11.7968 89.2425 11.9944 89.4609 12.2417C89.6793 12.489 89.845 12.7805 89.9475 13.0976C90.05 13.4146 90.087 13.7503 90.0561 14.0829C90.0876 14.4159 90.051 14.752 89.9488 15.0696C89.8466 15.3872 89.6809 15.6793 89.4625 15.927C89.244 16.1748 88.9776 16.3728 88.6804 16.5083C88.3832 16.6438 88.0617 16.7138 87.7366 16.7138C87.4116 16.7138 87.0901 16.6438 86.7929 16.5083C86.4956 16.3728 86.2292 16.1748 86.0108 15.927C85.7924 15.6793 85.6267 15.3872 85.5245 15.0696C85.4222 14.752 85.3857 14.4159 85.4172 14.0829ZM89.0577 14.0829C89.0577 12.9857 88.5787 12.344 87.7382 12.344C86.8945 12.344 86.4199 12.9857 86.4199 14.0829C86.4199 15.1889 86.8946 15.8257 87.7382 15.8257C88.5788 15.8256 89.0577 15.1845 89.0577 14.0829Z" fill="#37474F"/>
<path d="M91.3594 11.5539H92.2938V12.358H92.3663C92.4893 12.0692 92.6969 11.8271 92.96 11.6654C93.223 11.5038 93.5286 11.4306 93.834 11.4562C94.0733 11.4376 94.3136 11.4748 94.5371 11.5648C94.7605 11.6548 94.9615 11.7955 95.125 11.9763C95.2884 12.1571 95.4103 12.3734 95.4815 12.6093C95.5527 12.8452 95.5715 13.0945 95.5364 13.3388V16.6157H94.5657V13.5897C94.5657 12.7762 94.2223 12.3717 93.5044 12.3717C93.3419 12.3639 93.1797 12.3924 93.0289 12.4551C92.8781 12.5179 92.7423 12.6135 92.6308 12.7353C92.5192 12.8572 92.4346 13.0024 92.3827 13.161C92.3308 13.3197 92.3128 13.488 92.33 13.6545V16.6157H91.3594V11.5539Z" fill="#37474F"/>
<path d="M101.018 10.2939V11.5772H102.084V12.4187H101.018V15.0215C101.018 15.5518 101.23 15.7839 101.714 15.7839C101.837 15.7835 101.961 15.7758 102.084 15.7609V16.593C101.909 16.6251 101.733 16.6422 101.556 16.644C100.476 16.644 100.046 16.2532 100.046 15.2773V12.4187H99.2656V11.5772H100.046V10.2939H101.018Z" fill="#37474F"/>
<path d="M103.412 9.57812H104.374V12.3676H104.451C104.58 12.0761 104.793 11.8326 105.062 11.6703C105.33 11.5081 105.64 11.4349 105.951 11.4608C106.189 11.4475 106.427 11.4884 106.648 11.5806C106.869 11.6728 107.067 11.8141 107.229 11.9944C107.391 12.1746 107.512 12.3894 107.584 12.6233C107.655 12.8573 107.676 13.1047 107.644 13.3479V16.616H106.673V13.5943C106.673 12.7858 106.307 12.3764 105.621 12.3764C105.454 12.3623 105.287 12.3859 105.129 12.4455C104.972 12.5052 104.83 12.5994 104.712 12.7216C104.594 12.8439 104.503 12.9911 104.447 13.1532C104.39 13.3152 104.368 13.4881 104.383 13.6597V16.616H103.412L103.412 9.57812Z" fill="#37474F"/>
<path d="M113.303 15.249C113.171 15.7116 112.885 16.1117 112.496 16.3795C112.106 16.6472 111.638 16.7654 111.172 16.7134C110.848 16.7222 110.526 16.6583 110.228 16.5262C109.931 16.3941 109.664 16.1969 109.448 15.9483C109.232 15.6997 109.071 15.4057 108.976 15.0866C108.882 14.7676 108.856 14.4312 108.9 14.1007C108.857 13.7692 108.883 13.432 108.978 13.112C109.072 12.792 109.232 12.4966 109.447 12.2459C109.662 11.9951 109.927 11.7948 110.224 11.6586C110.521 11.5223 110.843 11.4533 111.168 11.4561C112.536 11.4561 113.362 12.4184 113.362 14.0079V14.3565H109.889V14.4125C109.873 14.5982 109.896 14.7852 109.955 14.9614C110.014 15.1376 110.109 15.2992 110.232 15.4357C110.355 15.5722 110.505 15.6807 110.671 15.7542C110.838 15.8277 111.017 15.8647 111.198 15.8626C111.431 15.8913 111.666 15.8482 111.874 15.739C112.083 15.6297 112.255 15.4591 112.369 15.2489L113.303 15.249ZM109.889 13.6177H112.373C112.385 13.4478 112.363 13.2771 112.307 13.1167C112.251 12.9563 112.164 12.8096 112.05 12.6861C111.936 12.5626 111.798 12.465 111.645 12.3996C111.492 12.3342 111.328 12.3025 111.162 12.3064C110.994 12.3042 110.828 12.3366 110.672 12.4018C110.517 12.4669 110.375 12.5634 110.257 12.6856C110.138 12.8078 110.044 12.9533 109.981 13.1133C109.918 13.2734 109.886 13.4449 109.889 13.6177H109.889Z" fill="#37474F"/>
</svg>
